<svg viewBox="0 0 64 64" xmlns="http://www.w3.org/2000/svg"><circle cx="25.5" cy="25.5" fill="#ffe5d2" r="21.5"/><g fill="none"><path d="m8 7-2.5-2.5" stroke="#4c241d" stroke-linecap="round" stroke-linejoin="round" stroke-width="2"/><path d="m7 10h-3" stroke="#4c241d" stroke-linecap="round" stroke-linejoin="round" stroke-width="2"/><path d="m11 7v-4" stroke="#4c241d" stroke-linecap="round" stroke-linejoin="round" stroke-width="2"/><path d="m44.919 8.586-3.696 3.695" stroke="#4c241d" stroke-linecap="round" stroke-linejoin="round" stroke-width="2"/><path d="m41.223 8.586 3.696 3.695" stroke="#4c241d" stroke-linecap="round" stroke-linejoin="round" stroke-width="2"/><path d="m21.919 54.586-3.696 3.695" stroke="#4c241d" stroke-linecap="round" stroke-linejoin="round" stroke-width="2"/><path d="m18.223 54.586 3.696 3.695" stroke="#4c241d" stroke-linecap="round" stroke-linejoin="round" stroke-width="2"/><circle cx="56.5" cy="14.5" r="2.5" stroke="#4c241d" stroke-linecap="round" stroke-linejoin="round" stroke-width="2"/></g><circle cx="5.5" cy="21.5" fill="#4c241d" r="1.132"/><circle cx="15.5" cy="47.5" fill="#4c241d" r="1.132"/><circle cx="60.5" cy="58.5" fill="#4c241d" r="1.132"/><path d="m41.041 17.512a4 4 0 0 1 4 4v3a0 0 0 0 1 0 0h-8a0 0 0 0 1 0 0v-3a4 4 0 0 1 4-4z" fill="#ffce56" stroke="#4c241d" stroke-linecap="round" stroke-linejoin="round" stroke-width="2" transform="matrix(.73448835 .6786213 -.6786213 .73448835 25.156 -22.273)"/><path d="m45.959 23.488a4 4 0 0 1 4 4v3a0 0 0 0 1 0 0h-8a0 0 0 0 1 0 0v-3a4 4 0 0 1 4-4z" fill="#ffce56" stroke="#4c241d" stroke-linecap="round" stroke-linejoin="round" stroke-width="2" transform="matrix(.48962596 .87193258 -.87193258 .48962596 46.987 -26.299)"/><path d="m34.379 16.52c-8.996-5.454-15.379-6.52-15.379-6.52l-6 5s-4.781 29.548 25.146 34.1a4.075 4.075 0 0 1 2.276 1.132 3.95 3.95 0 0 1 1.144 3.285c-.319 2.519-.182 7.078 4.275 9.478 0 0 6.855-3.917 2.938-13.221 9.304 3.926 13.221-2.933 13.221-2.933-2.4-4.456-6.957-4.594-9.476-4.275a3.959 3.959 0 0 1 -3.289-1.145 4.076 4.076 0 0 1 -1.13-2.275c-1.85-12.146-7.576-18.898-13.726-22.626" fill="#fc8c29" stroke="#4c241d" stroke-linecap="round" stroke-linejoin="round" stroke-width="2"/><circle cx="24.111" cy="20.212" fill="#fff" r="3.788" stroke="#4c241d" stroke-linecap="round" stroke-linejoin="round" stroke-width="2"/><circle cx="22.611" cy="18.712" fill="#4c241d" r="2.288"/><path d="m16.039 34.459c3.853-.297 17.136-2.416 17.961-17.459" fill="none" stroke="#4c241d" stroke-linecap="round" stroke-linejoin="round" stroke-width="2"/><path d="m29.347 37.814a3.9 3.9 0 0 1 -3.9 3.9" fill="none" stroke="#ffce56" stroke-linecap="round" stroke-linejoin="round" stroke-width="2"/><path d="m35.587 39.371a3.9 3.9 0 0 1 -3.9 3.9" fill="none" stroke="#ffce56" stroke-linecap="round" stroke-linejoin="round" stroke-width="2"/><path d="m42.826 32.131a3.9 3.9 0 0 1 -3.9 3.9" fill="none" stroke="#ffce56" stroke-linecap="round" stroke-linejoin="round" stroke-width="2"/><path d="m43.383 39.371a3.9 3.9 0 0 1 -3.9 3.9" fill="none" stroke="#ffce56" stroke-linecap="round" stroke-linejoin="round" stroke-width="2"/><path d="m39.6 25.335a3.9 3.9 0 0 1 -3.9 3.9" fill="none" stroke="#ffce56" stroke-linecap="round" stroke-linejoin="round" stroke-width="2"/><rect fill="#f53e28" height="10" rx="3.5" stroke="#4c241d" stroke-linecap="round" stroke-linejoin="round" stroke-width="2" transform="matrix(.77705808 .62942889 -.62942889 .77705808 12.267 -6.635)" width="7" x="12" y="9"/><path d="m16 13-1 1" fill="none" stroke="#4c241d" stroke-linecap="round" stroke-linejoin="round" stroke-width="3"/></svg>